<svg width="111" height="124" viewBox="0 0 111 124" fill="none" xmlns="http://www.w3.org/2000/svg">
<path fill-rule="evenodd" clip-rule="evenodd" d="M58.8724 20.6699C58.8724 20.6699 55.2798 10.5522 53.1582 6.68603C50.9945 2.74291 46.8142 0.0211417 42.3648 0.0119251C37.1903 0.00143717 31.7951 1.11252 27.4444 12.7245C21.395 28.8695 0.143352 82.3259 0.143352 82.3259C0.143352 82.3259 -1.56455 91.7634 6.8099 93.7672C13.9571 95.4777 17.1507 87.3671 18.8732 82.3259C21.029 76.017 23.0001 70.8846 23.0001 70.8846H48.3964C48.3964 70.8846 48.9774 69.8116 46.4917 66.1174C44.6152 63.3659 43.1202 60.3723 42.0473 57.2186C41.7892 56.4463 27.7619 56.9007 27.7619 56.9007L41.4124 19.3986L44.587 27.0262C44.587 27.0262 48.0339 19.6653 58.8724 20.6699ZM45.2219 29.5687L55.063 56.9007H43.6346C43.6346 56.9007 47.8056 64.3608 49.0313 66.753C50.7903 70.1873 50.4234 73.9868 53.1582 75.6518C54.4741 76.4533 56.3328 75.6518 56.3328 75.6518C56.3328 75.6518 59.3032 75.7103 59.5073 75.6518C60.3295 75.4166 59.9121 74.7765 60.7771 74.3805C61.5765 74.0147 63.1771 74.3716 63.6342 74.0627C65.2009 73.0044 64.979 69.6836 64.2691 68.6599C61.6409 64.8703 60.0362 63.769 59.5073 61.0323C58.9785 58.2956 58.9692 55.4868 58.2375 54.3582C57.4013 53.0689 56.3328 51.1801 56.3328 51.1801L58.8724 46.7307C58.8724 46.7307 64.1482 52.7746 65.2215 54.0404C65.9885 54.9455 65.539 69.2606 65.539 72.1558C65.539 75.7093 66.2002 75.9785 66.1739 76.9231C66.0694 80.6488 66.3116 78.7117 66.1739 79.4656C66.0031 80.399 65.9161 82.6599 65.8564 84.2538C65.7205 87.805 65.8564 87.3922 65.539 89.6356C65.2215 91.8791 64.5072 93.7498 65.8564 93.7672C67.7611 93.7923 75.6975 93.7672 75.6975 93.7672C75.6975 93.7672 76.6499 93.1141 75.6975 91.2247C74.7451 89.3353 73.5414 90.0806 74.1102 86.4575C74.3829 84.72 75.3562 83.6846 75.3801 81.0546C75.3867 80.2919 75.3801 77.5587 75.3801 77.5587L80.4593 68.3421C80.4593 68.3421 84.1326 75.6143 84.2688 76.6052C84.505 78.3246 84.0529 80.2105 83.9513 81.0546C83.7139 83.0226 85.1754 84.7454 85.2211 86.7753C85.3005 90.3154 84.3085 89.4062 84.2688 90.2713C84.1983 91.8038 83.9247 93.22 86.1735 93.1316C89.1354 93.0156 100.419 93.4494 100.459 93.1316C100.638 91.6989 99.4021 89.731 98.2368 89.6356C94.767 89.355 93.1178 87.6582 92.84 86.7753C92.1201 84.487 93.4311 79.2113 93.475 77.8765C93.6 74.0529 94.4273 71.913 94.7448 69.9311C95.2803 66.5868 94.7448 64.7225 94.7448 61.668C94.7448 58.6134 95.3797 55.9298 95.6971 53.087C96.0146 50.2441 96.967 48.9554 96.967 48.9554C96.967 48.9554 97.9193 47.9845 97.9193 50.5444C97.9193 53.1044 96.7612 53.7706 97.1082 56.3735C98.0165 63.1827 97.42 63.489 97.6019 64.5283C98.5447 69.9137 97.7076 68.4304 97.2844 69.6133C96.8612 70.7962 96.9593 72.754 97.9193 73.1093C100.96 74.2353 99.9158 74.9653 101.729 75.0162C104.242 75.087 104.886 74.1543 105.856 72.7915C107.133 70.9977 107.125 70.4431 108.713 65.4817C110.3 60.5203 111.267 59.6292 110.935 52.1335C110.735 47.6091 111.01 46.5899 110.622 44.3941C110.131 41.611 109.677 40.429 110.3 35.925C111.26 28.9884 108.184 25.6913 107.125 24.4836C104.444 21.4228 95.9349 22.237 95.7 21.936C94.5702 20.4878 90.0363 18.0479 89.983 18.1274C89.983 18.1274 89.0236 15.2454 89.6655 14.6314C90.3258 13.9999 90.6442 12.5367 90.3004 11.1354C90.0049 9.93155 89.0852 8.83541 89.0306 7.63947C88.8592 3.89721 88.0624 5.41477 87.623 3.57145L88.3957 0.647554C88.3957 0.647554 88.2639 -0.381212 87.1259 0.32974C85.2491 1.50216 84.9037 2.23663 84.9037 2.23663H79.507C79.507 2.23663 77.4816 -0.189887 76.6499 0.0119251C75.9416 0.183863 75.4835 1.205 75.3801 4.77914C75.3328 6.40572 74.7102 6.96094 73.7928 9.22855L70.6182 15.5848L69.3484 17.4917C68.8303 17.0738 61.1451 20.8965 60.7771 22.2589C60.6975 22.5536 54.0531 21.9144 50.5958 23.8137C46.4146 26.1109 45.2162 29.5604 45.2219 29.5687Z" fill="#219653"/>
<path d="M13.9395 116.893L13.0508 114.557H5.48438L4.5957 116.943C4.2487 117.874 3.95247 118.505 3.70703 118.835C3.46159 119.157 3.05957 119.317 2.50098 119.317C2.02702 119.317 1.60807 119.144 1.24414 118.797C0.880208 118.45 0.698242 118.056 0.698242 117.616C0.698242 117.362 0.74056 117.1 0.825195 116.829C0.909831 116.558 1.04948 116.182 1.24414 115.699L6.00488 103.613C6.1403 103.266 6.30111 102.852 6.4873 102.369C6.68197 101.878 6.88509 101.472 7.09668 101.15C7.31673 100.829 7.60026 100.571 7.94727 100.376C8.30273 100.173 8.73861 100.071 9.25488 100.071C9.77962 100.071 10.2155 100.173 10.5625 100.376C10.918 100.571 11.2015 100.825 11.4131 101.138C11.6331 101.451 11.8151 101.789 11.959 102.153C12.1113 102.509 12.3018 102.987 12.5303 103.588L17.3926 115.598C17.7734 116.512 17.9639 117.176 17.9639 117.591C17.9639 118.022 17.7819 118.42 17.418 118.784C17.0625 119.14 16.6309 119.317 16.123 119.317C15.8268 119.317 15.5729 119.262 15.3613 119.152C15.1497 119.051 14.972 118.911 14.8281 118.733C14.6842 118.547 14.5277 118.268 14.3584 117.896C14.1976 117.515 14.0579 117.18 13.9395 116.893ZM6.47461 111.726H12.0352L9.22949 104.045L6.47461 111.726ZM27.9678 111.751H24.5146V117.02C24.5146 117.773 24.3369 118.344 23.9814 118.733C23.626 119.123 23.1774 119.317 22.6357 119.317C22.0687 119.317 21.6117 119.127 21.2646 118.746C20.9176 118.357 20.7441 117.79 20.7441 117.045V102.699C20.7441 101.87 20.9346 101.277 21.3154 100.922C21.6963 100.566 22.3014 100.389 23.1309 100.389H27.9678C29.3981 100.389 30.4984 100.499 31.2686 100.719C32.0303 100.93 32.6862 101.282 33.2363 101.772C33.7949 102.263 34.2181 102.864 34.5059 103.575C34.7936 104.286 34.9375 105.086 34.9375 105.975C34.9375 107.87 34.3535 109.309 33.1855 110.291C32.0176 111.264 30.2783 111.751 27.9678 111.751ZM27.0537 103.22H24.5146V108.907H27.0537C27.9424 108.907 28.6829 108.814 29.2754 108.628C29.8763 108.442 30.3333 108.137 30.6465 107.714C30.9596 107.291 31.1162 106.736 31.1162 106.051C31.1162 105.23 30.875 104.561 30.3926 104.045C29.8509 103.495 28.738 103.22 27.0537 103.22ZM45.3096 111.751H41.8564V117.02C41.8564 117.773 41.6787 118.344 41.3232 118.733C40.9678 119.123 40.5192 119.317 39.9775 119.317C39.4105 119.317 38.9535 119.127 38.6064 118.746C38.2594 118.357 38.0859 117.79 38.0859 117.045V102.699C38.0859 101.87 38.2764 101.277 38.6572 100.922C39.0381 100.566 39.6432 100.389 40.4727 100.389H45.3096C46.7399 100.389 47.8402 100.499 48.6104 100.719C49.3721 100.93 50.028 101.282 50.5781 101.772C51.1367 102.263 51.5599 102.864 51.8477 103.575C52.1354 104.286 52.2793 105.086 52.2793 105.975C52.2793 107.87 51.6953 109.309 50.5273 110.291C49.3594 111.264 47.6201 111.751 45.3096 111.751ZM44.3955 103.22H41.8564V108.907H44.3955C45.2842 108.907 46.0247 108.814 46.6172 108.628C47.2181 108.442 47.6751 108.137 47.9883 107.714C48.3014 107.291 48.458 106.736 48.458 106.051C48.458 105.23 48.2168 104.561 47.7344 104.045C47.1927 103.495 46.0798 103.22 44.3955 103.22ZM63.8701 113.122H57.0908C57.0993 113.909 57.2559 114.603 57.5605 115.204C57.8737 115.805 58.2842 116.258 58.792 116.562C59.3083 116.867 59.8753 117.02 60.4932 117.02C60.9079 117.02 61.2845 116.973 61.623 116.88C61.9701 116.778 62.3044 116.626 62.626 116.423C62.9476 116.211 63.2438 115.987 63.5146 115.75C63.7855 115.513 64.1367 115.191 64.5684 114.785C64.7461 114.633 65 114.557 65.3301 114.557C65.6855 114.557 65.9733 114.654 66.1934 114.849C66.4134 115.043 66.5234 115.318 66.5234 115.674C66.5234 115.987 66.4007 116.355 66.1553 116.778C65.9098 117.193 65.5374 117.595 65.0381 117.984C64.5472 118.365 63.9251 118.683 63.1719 118.937C62.4271 119.19 61.568 119.317 60.5947 119.317C58.3688 119.317 56.638 118.683 55.4023 117.413C54.1667 116.144 53.5488 114.421 53.5488 112.246C53.5488 111.222 53.7012 110.274 54.0059 109.402C54.3105 108.522 54.7549 107.769 55.3389 107.143C55.9229 106.516 56.6423 106.038 57.4971 105.708C58.3519 105.369 59.2998 105.2 60.3408 105.2C61.695 105.2 62.8545 105.488 63.8193 106.063C64.7926 106.631 65.5205 107.367 66.0029 108.272C66.4854 109.178 66.7266 110.101 66.7266 111.04C66.7266 111.912 66.4769 112.479 65.9775 112.741C65.4782 112.995 64.7757 113.122 63.8701 113.122ZM57.0908 111.154H63.375C63.2904 109.969 62.9688 109.085 62.4102 108.501C61.86 107.909 61.1322 107.612 60.2266 107.612C59.3633 107.612 58.6523 107.913 58.0938 108.514C57.5436 109.106 57.2093 109.986 57.0908 111.154ZM73.0996 114.315V117.21C73.0996 117.912 72.9346 118.441 72.6045 118.797C72.2744 119.144 71.8555 119.317 71.3477 119.317C70.8483 119.317 70.4378 119.14 70.1162 118.784C69.7946 118.429 69.6338 117.904 69.6338 117.21V107.562C69.6338 106.004 70.1966 105.226 71.3223 105.226C71.8978 105.226 72.3125 105.408 72.5664 105.771C72.8203 106.135 72.96 106.673 72.9854 107.384C73.4001 106.673 73.8232 106.135 74.2549 105.771C74.695 105.408 75.279 105.226 76.0068 105.226C76.7347 105.226 77.4414 105.408 78.127 105.771C78.8125 106.135 79.1553 106.618 79.1553 107.219C79.1553 107.642 79.0072 107.993 78.7109 108.272C78.4232 108.543 78.11 108.679 77.7715 108.679C77.6445 108.679 77.3356 108.603 76.8447 108.45C76.3623 108.289 75.9349 108.209 75.5625 108.209C75.0547 108.209 74.64 108.344 74.3184 108.615C73.9967 108.878 73.7471 109.271 73.5693 109.796C73.3916 110.321 73.2689 110.947 73.2012 111.675C73.1335 112.394 73.0996 113.274 73.0996 114.315ZM84.1445 114.315V117.21C84.1445 117.912 83.9795 118.441 83.6494 118.797C83.3193 119.144 82.9004 119.317 82.3926 119.317C81.8932 119.317 81.4827 119.14 81.1611 118.784C80.8395 118.429 80.6787 117.904 80.6787 117.21V107.562C80.6787 106.004 81.2415 105.226 82.3672 105.226C82.9427 105.226 83.3574 105.408 83.6113 105.771C83.8652 106.135 84.0049 106.673 84.0303 107.384C84.445 106.673 84.8682 106.135 85.2998 105.771C85.7399 105.408 86.3239 105.226 87.0518 105.226C87.7796 105.226 88.4863 105.408 89.1719 105.771C89.8574 106.135 90.2002 106.618 90.2002 107.219C90.2002 107.642 90.0521 107.993 89.7559 108.272C89.4681 108.543 89.1549 108.679 88.8164 108.679C88.6895 108.679 88.3805 108.603 87.8896 108.45C87.4072 108.289 86.9798 108.209 86.6074 108.209C86.0996 108.209 85.6849 108.344 85.3633 108.615C85.0417 108.878 84.792 109.271 84.6143 109.796C84.4365 110.321 84.3138 110.947 84.2461 111.675C84.1784 112.394 84.1445 113.274 84.1445 114.315ZM104.089 112.271C104.089 113.304 103.928 114.256 103.606 115.128C103.285 116 102.819 116.749 102.21 117.375C101.601 118.001 100.873 118.484 100.026 118.822C99.18 119.152 98.2279 119.317 97.1699 119.317C96.1204 119.317 95.1768 119.148 94.3389 118.81C93.501 118.471 92.7731 117.989 92.1553 117.362C91.5459 116.728 91.0804 115.983 90.7588 115.128C90.4456 114.265 90.2891 113.312 90.2891 112.271C90.2891 111.222 90.4499 110.261 90.7715 109.39C91.0931 108.518 91.5544 107.773 92.1553 107.155C92.7562 106.537 93.484 106.063 94.3389 105.733C95.1937 105.395 96.1374 105.226 97.1699 105.226C98.2194 105.226 99.1715 105.395 100.026 105.733C100.881 106.072 101.613 106.554 102.223 107.181C102.832 107.807 103.293 108.552 103.606 109.415C103.928 110.278 104.089 111.23 104.089 112.271ZM100.61 112.271C100.61 110.858 100.297 109.758 99.6709 108.971C99.0531 108.184 98.2194 107.79 97.1699 107.79C96.4928 107.79 95.8962 107.968 95.3799 108.323C94.8636 108.67 94.4658 109.187 94.1865 109.872C93.9072 110.558 93.7676 111.357 93.7676 112.271C93.7676 113.177 93.903 113.968 94.1738 114.646C94.4531 115.323 94.8467 115.843 95.3545 116.207C95.8708 116.562 96.4759 116.74 97.1699 116.74C98.2194 116.74 99.0531 116.347 99.6709 115.56C100.297 114.764 100.61 113.668 100.61 112.271Z" fill="#219653"/>
</svg>
