<svg width="111" height="94" viewBox="0 0 111 94" fill="none" xmlns="http://www.w3.org/2000/svg">
<path fill-rule="evenodd" clip-rule="evenodd" d="M58.8724 20.6699C58.8724 20.6699 55.2798 10.5522 53.1582 6.68603C50.9945 2.74291 46.8142 0.0211417 42.3648 0.0119251C37.1903 0.00143717 31.7951 1.11252 27.4444 12.7245C21.395 28.8695 0.143352 82.3259 0.143352 82.3259C0.143352 82.3259 -1.56455 91.7634 6.8099 93.7672C13.9571 95.4777 17.1507 87.3671 18.8732 82.3259C21.029 76.017 23.0001 70.8846 23.0001 70.8846H48.3964C48.3964 70.8846 48.9774 69.8116 46.4917 66.1174C44.6152 63.3659 43.1202 60.3723 42.0473 57.2186C41.7892 56.4463 27.7619 56.9007 27.7619 56.9007L41.4124 19.3986L44.587 27.0262C44.587 27.0262 48.0339 19.6653 58.8724 20.6699ZM45.2219 29.5687L55.063 56.9007H43.6346C43.6346 56.9007 47.8056 64.3608 49.0313 66.753C50.7903 70.1873 50.4234 73.9868 53.1582 75.6518C54.4741 76.4533 56.3328 75.6518 56.3328 75.6518C56.3328 75.6518 59.3032 75.7103 59.5073 75.6518C60.3295 75.4166 59.9121 74.7765 60.7771 74.3805C61.5765 74.0147 63.1771 74.3716 63.6342 74.0627C65.2009 73.0044 64.979 69.6836 64.2691 68.6599C61.6409 64.8703 60.0362 63.769 59.5073 61.0323C58.9785 58.2956 58.9692 55.4868 58.2375 54.3582C57.4013 53.0689 56.3328 51.1801 56.3328 51.1801L58.8724 46.7307C58.8724 46.7307 64.1482 52.7746 65.2215 54.0404C65.9885 54.9455 65.539 69.2606 65.539 72.1558C65.539 75.7093 66.2002 75.9785 66.1739 76.9231C66.0694 80.6488 66.3116 78.7117 66.1739 79.4656C66.0031 80.399 65.9161 82.6599 65.8564 84.2538C65.7206 87.805 65.8564 87.3922 65.539 89.6356C65.2215 91.8791 64.5072 93.7498 65.8564 93.7672C67.7611 93.7923 75.6975 93.7672 75.6975 93.7672C75.6975 93.7672 76.6499 93.1141 75.6975 91.2247C74.7451 89.3353 73.5414 90.0806 74.1102 86.4575C74.3829 84.72 75.3562 83.6846 75.3801 81.0546C75.3867 80.2919 75.3801 77.5587 75.3801 77.5587L80.4593 68.3421C80.4593 68.3421 84.1326 75.6143 84.2688 76.6052C84.505 78.3246 84.0529 80.2105 83.9513 81.0546C83.7139 83.0226 85.1754 84.7454 85.2211 86.7753C85.3005 90.3155 84.3085 89.4062 84.2688 90.2713C84.1983 91.8038 83.9247 93.22 86.1735 93.1316C89.1354 93.0156 100.419 93.4494 100.459 93.1316C100.638 91.6989 99.4021 89.731 98.2368 89.6356C94.767 89.355 93.1178 87.6582 92.84 86.7753C92.1201 84.487 93.4311 79.2113 93.475 77.8765C93.6 74.0529 94.4273 71.913 94.7448 69.9311C95.2803 66.5868 94.7448 64.7225 94.7448 61.668C94.7448 58.6134 95.3797 55.9298 95.6971 53.087C96.0146 50.2441 96.9669 48.9554 96.9669 48.9554C96.9669 48.9554 97.9193 47.9845 97.9193 50.5444C97.9193 53.1044 96.7612 53.7706 97.1082 56.3735C98.0165 63.1827 97.42 63.489 97.6019 64.5283C98.5447 69.9137 97.7076 68.4304 97.2844 69.6133C96.8612 70.7962 96.9593 72.754 97.9193 73.1093C100.96 74.2353 99.9158 74.9653 101.729 75.0162C104.242 75.087 104.886 74.1543 105.856 72.7915C107.133 70.9977 107.125 70.4431 108.713 65.4817C110.3 60.5203 111.267 59.6292 110.935 52.1335C110.735 47.6091 111.01 46.5899 110.622 44.3941C110.131 41.611 109.677 40.429 110.3 35.925C111.26 28.9884 108.184 25.6913 107.125 24.4836C104.444 21.4228 95.9349 22.237 95.7 21.936C94.5702 20.4878 90.0363 18.0479 89.983 18.1274C89.983 18.1274 89.0236 15.2454 89.6655 14.6314C90.3258 13.9999 90.6442 12.5367 90.3004 11.1354C90.0049 9.93155 89.0852 8.83541 89.0306 7.63947C88.8592 3.89721 88.0624 5.41477 87.623 3.57145L88.3957 0.647554C88.3957 0.647554 88.2639 -0.381212 87.1259 0.32974C85.2491 1.50216 84.9037 2.23663 84.9037 2.23663H79.507C79.507 2.23663 77.4816 -0.189887 76.6499 0.0119251C75.9416 0.183863 75.4835 1.205 75.3801 4.77914C75.3327 6.40572 74.7102 6.96094 73.7928 9.22855L70.6182 15.5848L69.3484 17.4917C68.8303 17.0738 61.1451 20.8965 60.7771 22.2589C60.6975 22.5536 54.0532 21.9144 50.5958 23.8137C46.4146 26.1109 45.2162 29.5604 45.2219 29.5687Z" fill="#219653"/>
</svg>
